<svg xmlns="http://www.w3.org/2000/svg" viewBox="0 0 800 200" width="800" height="200">
  <defs>
    <!-- Gradiente azul royal para azul escuro judicial -->
    <linearGradient id="bgGrad" x1="0%" y1="0%" x2="100%" y2="100%">
      <stop offset="0%" style="stop-color:#001f5b;stop-opacity:1"/>
      <stop offset="40%" style="stop-color:#003087;stop-opacity:1"/>
      <stop offset="70%" style="stop-color:#0a4a2a;stop-opacity:1"/>
      <stop offset="100%" style="stop-color:#1a7a4a;stop-opacity:1"/>
    </linearGradient>
    <!-- Brilho verde ao redor do logo -->
    <radialGradient id="greenGlow" cx="50%" cy="50%" r="50%">
      <stop offset="0%" style="stop-color:#1a7a4a;stop-opacity:0.3"/>
      <stop offset="100%" style="stop-color:#1a7a4a;stop-opacity:0"/>
    </radialGradient>
    <!-- Grade sutil -->
    <pattern id="grid" width="40" height="40" patternUnits="userSpaceOnUse" opacity="0.05">
      <path d="M 40 0 L 0 0 0 40" fill="none" stroke="white" stroke-width="0.5"/>
    </pattern>
  </defs>

  <!-- Fundo -->
  <rect width="800" height="200" fill="url(#bgGrad)"/>
  <rect width="800" height="200" fill="url(#grid)"/>

  <!-- Brilho atras do logo -->
  <circle cx="100" cy="100" r="80" fill="url(#greenGlow)"/>

  <!-- Logo: circulos concentricos -->
  <circle cx="100" cy="100" r="68" fill="#003087"/>
  <circle cx="100" cy="100" r="55" fill="#1a7a4a"/>
  <circle cx="100" cy="100" r="40" fill="#001f5b"/>

  <!-- Balanca da justica: haste central -->
  <rect x="98.5" y="72" width="3" height="38" rx="1.5" fill="white" opacity="0.95"/>

  <!-- Travessao horizontal da balanca -->
  <rect x="82" y="73" width="36" height="3.5" rx="1.75" fill="white" opacity="0.95"/>

  <!-- Prato esquerdo: fio -->
  <line x1="87" y1="76.5" x2="87" y2="87" stroke="white" stroke-width="2" stroke-linecap="round" opacity="0.9"/>
  <!-- Prato esquerdo: arco -->
  <path d="M80 87 Q87 91 94 87" fill="none" stroke="white" stroke-width="2.2" stroke-linecap="round" opacity="0.9"/>

  <!-- Prato direito: fio (levemente mais baixo) -->
  <line x1="113" y1="76.5" x2="113" y2="92" stroke="white" stroke-width="2" stroke-linecap="round" opacity="0.9"/>
  <!-- Prato direito: arco -->
  <path d="M106 92 Q113 96 120 92" fill="none" stroke="white" stroke-width="2.2" stroke-linecap="round" opacity="0.9"/>

  <!-- Base da balanca -->
  <rect x="95" y="110" width="10" height="3" rx="1.5" fill="white" opacity="0.8"/>
  <rect x="90" y="113" width="20" height="3" rx="1.5" fill="white" opacity="0.7"/>

  <!-- Nos de IA na base -->
  <circle cx="87" cy="104" r="3.5" fill="#4fc3f7"/>
  <circle cx="100" cy="104" r="3.5" fill="#4fc3f7"/>
  <circle cx="113" cy="104" r="3.5" fill="#4fc3f7"/>
  <line x1="90.5" y1="104" x2="96.5" y2="104" stroke="#4fc3f7" stroke-width="1.5"/>
  <line x1="103.5" y1="104" x2="109.5" y2="104" stroke="#4fc3f7" stroke-width="1.5"/>

  <!-- Separador decorativo -->
  <line x1="180" y1="40" x2="180" y2="160" stroke="#4fc3f7" stroke-width="1" opacity="0.3"/>

  <!-- Titulo principal -->
  <text x="210" y="88" font-family="'Segoe UI', system-ui, -apple-system, sans-serif" font-size="42" font-weight="700" fill="white" letter-spacing="-1">MCP Juridico Brasil</text>

  <!-- Barra de acento azul claro sob o titulo -->
  <rect x="210" y="98" width="330" height="3" rx="1.5" fill="#4fc3f7" opacity="0.8"/>

  <!-- Tagline -->
  <text x="212" y="132" font-family="'Segoe UI', system-ui, -apple-system, sans-serif" font-size="17" fill="white" opacity="0.85" letter-spacing="0.3">Conectando IAs ao sistema judiciario brasileiro</text>

  <!-- Badges de tecnologia -->
  <!-- MCP -->
  <rect x="212" y="148" width="60" height="22" rx="11" fill="#4fc3f7" opacity="0.15"/>
  <text x="242" y="163" font-family="'Segoe UI', system-ui, sans-serif" font-size="11" fill="#4fc3f7" text-anchor="middle" font-weight="600">MCP</text>

  <!-- Python -->
  <rect x="280" y="148" width="72" height="22" rx="11" fill="#4fc3f7" opacity="0.15"/>
  <text x="316" y="163" font-family="'Segoe UI', system-ui, sans-serif" font-size="11" fill="#4fc3f7" text-anchor="middle" font-weight="600">Python 3.10+</text>

  <!-- DataJud -->
  <rect x="360" y="148" width="62" height="22" rx="11" fill="#4fc3f7" opacity="0.15"/>
  <text x="391" y="163" font-family="'Segoe UI', system-ui, sans-serif" font-size="11" fill="#4fc3f7" text-anchor="middle" font-weight="600">DataJud</text>

  <!-- 91 Tribunais -->
  <rect x="430" y="148" width="84" height="22" rx="11" fill="#4fc3f7" opacity="0.15"/>
  <text x="472" y="163" font-family="'Segoe UI', system-ui, sans-serif" font-size="11" fill="#4fc3f7" text-anchor="middle" font-weight="600">91 Tribunais</text>

  <!-- Pontos decorativos canto superior direito -->
  <circle cx="720" cy="40" r="3" fill="#4fc3f7" opacity="0.2"/>
  <circle cx="740" cy="30" r="2" fill="#4fc3f7" opacity="0.15"/>
  <circle cx="760" cy="50" r="4" fill="#1a7a4a" opacity="0.3"/>
  <circle cx="780" cy="35" r="2.5" fill="#4fc3f7" opacity="0.2"/>
  <circle cx="750" cy="65" r="1.5" fill="white" opacity="0.15"/>

  <!-- Pontos decorativos canto inferior direito -->
  <circle cx="710" cy="160" r="2" fill="#4fc3f7" opacity="0.15"/>
  <circle cx="740" cy="170" r="3" fill="#1a7a4a" opacity="0.2"/>
  <circle cx="770" cy="155" r="2" fill="white" opacity="0.1"/>
  <circle cx="790" cy="145" r="1.5" fill="#4fc3f7" opacity="0.15"/>

  <!-- Nos conectados decorativos (lado direito) -->
  <circle cx="660" cy="80" r="5" fill="#4fc3f7" opacity="0.25"/>
  <circle cx="690" cy="60" r="4" fill="#4fc3f7" opacity="0.2"/>
  <circle cx="700" cy="100" r="6" fill="#1a7a4a" opacity="0.3"/>
  <circle cx="670" cy="130" r="4" fill="#4fc3f7" opacity="0.2"/>
  <circle cx="640" cy="110" r="3" fill="white" opacity="0.15"/>
  <line x1="660" y1="80" x2="690" y2="60" stroke="#4fc3f7" stroke-width="1" opacity="0.2"/>
  <line x1="660" y1="80" x2="700" y2="100" stroke="#4fc3f7" stroke-width="1" opacity="0.2"/>
  <line x1="700" y1="100" x2="670" y2="130" stroke="#4fc3f7" stroke-width="1" opacity="0.2"/>
  <line x1="670" y1="130" x2="640" y2="110" stroke="#4fc3f7" stroke-width="1" opacity="0.15"/>
  <line x1="640" y1="110" x2="660" y2="80" stroke="#4fc3f7" stroke-width="1" opacity="0.15"/>
</svg>
